<?xml version="1.0" standalone="no"?>
<!DOCTYPE svg PUBLIC "-//W3C//DTD SVG 20010904//EN"
 "http://www.w3.org/TR/2001/REC-SVG-20010904/DTD/svg10.dtd">
<svg version="1.0" xmlns="http://www.w3.org/2000/svg"
 width="500.000000pt" height="500.000000pt" viewBox="0 0 500.000000 500.000000"
 preserveAspectRatio="xMidYMid meet">
<metadata>
Created by potrace 1.11, written by Peter Selinger 2001-2013
</metadata>
<g transform="translate(0.000000,500.000000) scale(0.100000,-0.100000)"
fill="#000000" stroke="none">
<path d="M4065 4431 c-157 -72 -152 -299 7 -366 70 -29 161 -13 217 38 79 72
79 222 0 294 -58 53 -152 67 -224 34z"/>
<path d="M3812 4388 c-28 -28 -2 -88 38 -88 10 0 26 7 34 16 9 8 16 24 16 34
0 40 -60 66 -88 38z"/>
<path d="M2325 4339 c-454 -44 -900 -268 -1198 -604 -217 -244 -367 -539 -433
-850 -50 -240 -52 -514 -5 -744 l18 -90 -46 -23 c-137 -71 -148 -254 -22 -343
36 -25 52 -30 104 -30 34 0 72 4 83 8 19 7 27 -2 69 -77 148 -264 405 -524
668 -678 325 -189 715 -280 1074 -249 257 22 456 77 678 186 368 181 653 465
834 830 80 161 120 274 155 436 55 251 55 522 2 774 -80 377 -288 737 -571
988 -392 347 -898 515 -1410 466z m1702 -961 c47 -44 14 -128 -51 -128 -40 0
-76 35 -76 74 0 66 78 100 127 54z m-1987 -233 c46 -10 135 -55 184 -94 l39
-31 238 0 239 0 46 36 c26 19 64 44 85 55 41 20 150 52 157 45 12 -13 22 -93
22 -179 1 -95 1 -98 34 -142 130 -170 107 -426 -52 -577 -90 -86 -193 -128
-313 -128 -89 0 -94 -18 -26 -83 37 -36 59 -66 66 -93 6 -21 11 -118 11 -215
l0 -177 -62 -11 c-107 -20 -267 -25 -376 -11 l-101 12 -3 122 -3 121 -90 1
c-140 1 -207 41 -266 157 -16 32 -45 75 -64 96 -41 45 -42 51 -14 51 34 0 56
-17 114 -90 67 -83 112 -109 203 -117 91 -7 118 5 132 58 8 30 28 58 67 96 68
65 63 83 -26 83 -120 0 -223 42 -313 128 -161 153 -183 407 -50 580 35 46 36
48 33 130 -3 107 14 195 37 188 9 -2 33 -8 52 -11z m-1050 -611 c108 -65 61
-234 -65 -234 -125 0 -173 167 -66 233 34 21 95 21 131 1z"/>
<path d="M2940 2810 c0 -7 16 -30 35 -53 19 -22 35 -47 35 -54 0 -7 7 -13 15
-13 25 0 17 36 -18 82 -32 42 -67 62 -67 38z"/>
<path d="M3037 2643 c-3 -5 -5 -39 -6 -76 0 -50 3 -67 13 -67 17 0 26 31 26
86 0 39 -22 76 -33 57z"/>
<path d="M2980 2398 c-48 -72 -112 -113 -211 -134 -55 -12 -79 -22 -79 -32 0
-35 172 13 247 68 43 31 106 116 100 134 -8 24 -25 13 -57 -36z"/>
<path d="M4279 3871 c-23 -23 -29 -38 -29 -71 0 -33 6 -48 29 -71 65 -64 171
-20 171 71 0 33 -6 48 -29 71 -23 23 -38 29 -71 29 -33 0 -48 -6 -71 -29z"/>
<path d="M4001 1286 c-87 -48 -50 -186 49 -186 51 0 100 49 100 99 0 75 -83
124 -149 87z"/>
<path d="M1179 721 c-64 -65 -20 -171 71 -171 58 0 100 42 100 100 0 91 -106
135 -171 71z"/>
</g>
</svg>
